<svg width="1em" height="1em" viewBox="0 0 20 20" xmlns="http://www.w3.org/2000/svg">
  <g fill="none" fill-rule="evenodd">
    <path
      d="M4.25 1.267h11.5a1.5 1.5 0 0 1 1.5 1.5v14.5a1.5 1.5 0 0 1-1.5 1.5H4.25a1.5 1.5 0 0 1-1.5-1.5v-14.5a1.5 1.5 0 0 1 1.5-1.5Z"
      stroke="#8F6333" fill="#F5DD9C" stroke-linecap="round" stroke-linejoin="round"></path>
    <path d="M6 1.304h8l-.675 2.205a1.5 1.5 0 0 1-1.434 1.06H8.109a1.5 1.5 0 0 1-1.434-1.06L6 1.304Z" stroke="#8F6333"
      fill="#E39631"></path>
    <path
      d="M6.34 10.199c.354-.38.704-.445 1.052-.195.46.33 1.12 1.215 1.98 2.654 1.836-3.306 2.856-5.092 3.06-5.36.162-.214.53-.313 1.104-.296a.29.29 0 0 1 .245.43c-1.96 3.548-3.099 5.531-3.418 5.95-.495.65-1.607.765-2.102.45-.305-.194-.973-1.113-2.004-2.757h-.001a.727.727 0 0 1 .083-.878Z"
      fill="#E9B15A"></path>
  </g>
</svg>