<svg width="1em" height="1em" viewBox="0 0 256 256" xmlns="http://www.w3.org/2000/svg">
  <g transform="translate(8 21.113)" fill-rule="nonzero" fill="none">
    <path
      d="m213.472 20.053.258 1.433.364 2.075.334 1.985.206 1.273.194 1.233.18 1.194.169 1.155.155 1.115.142 1.077.129 1.038.116 1 .103.96.09.923.077.885.065.847.027.409.065 1.14.074 1.446.062 1.4.05 1.356c.016.445.028.883.039 1.315l.024 1.275c.15 10.478-1.133 17.154-5.37 26.2-6.52 13.917-18.603 22.64-32.765 24.71-13.251 1.936-26.912-2.242-36.294-11.331-19.317-18.715-14.75-52.13 9.162-66.775 6.658-4.077 14.78-6.557 25.332-8.072a66.378 66.378 0 0 1 4.491-.478l1.091-.074c.185-.012.371-.023.559-.033l1.142-.057 1.176-.045 1.21-.035 1.246-.022c.421-.006.848-.01 1.28-.012h1.315l.67.005 1.367.017.697.012 1.42.034 1.454.045.741.026 1.508.062 1.544.072.785.04 1.597.09 1.764.108.407.041a11.002 11.002 0 0 1 9.548 8.938Zm-16.761 8.68-1.287-.051-1.349-.045-1.31-.034-1.27-.024-1.23-.013-1.19-.004-1.15.007-1.111.017-1.07.028c-.175.005-.348.01-.52.017l-1.01.042c-.494.024-.973.051-1.437.083l-.907.067-.866.077c-.705.068-1.367.147-1.985.236-8.333 1.197-14.232 2.998-18.49 5.605-14.074 8.62-16.74 28.129-6.038 38.497 5.294 5.129 13.344 7.59 21.166 6.448 8.266-1.208 15.154-6.181 19.067-14.535l.184-.397.352-.779.33-.762c.214-.504.413-.999.598-1.488l.269-.73.25-.723c1.116-3.366 1.608-6.62 1.689-10.927l.01-.94v-.974a89.845 89.845 0 0 0-.006-.5l-.018-1.032a115.19 115.19 0 0 0-.014-.53l-.034-1.095-.046-1.139-.054-1.186-.065-1.236-.055-.963-.049-.683-.06-.726-.074-.77-.086-.812-.152-1.298-.117-.92-.13-.96-.141-1.005-.154-1.045-.167-1.088-.273-1.71Z"
      fill="#BAEF00"></path>
    <path
      d="m23.475 185.717.1-1.491.102-1.447.105-1.403.11-1.36.11-1.315.116-1.271.178-1.827.123-1.163.127-1.12.064-.545.132-1.056.067-.512.136-.992.14-.95.144-.906.147-.865.075-.417.216-1.135.279-1.42.279-1.373.14-.67.28-1.305.284-1.265c.047-.207.095-.412.143-.616l.29-1.206c2.34-9.492 5.222-15.474 11.274-22.916 9.698-11.926 23.533-17.473 37.775-16.064 13.328 1.319 25.573 8.671 32.474 19.758 14.207 22.824 1.673 54.14-25.074 62.577-7.253 2.288-14.632 2.784-25.066 1.858l-1.442-.136c-6.665-.656-14.83-2.567-24.603-5.71l-1.869-.609-.398-.149a10.998 10.998 0 0 1-6.958-10.98Zm18.359-4.27.646.192c.958.284 1.892.551 2.802.803l1.348.365c.665.177 1.317.345 1.955.504l1.258.305c3.515.832 6.594 1.376 9.223 1.635l1.204.113.586.051 1.14.092.556.04 1.08.068a77.18 77.18 0 0 0 2.544.107l.958.017c.785.008 1.537 0 2.262-.024l.856-.036c3.092-.16 5.677-.625 8.144-1.403 15.754-4.97 23.074-23.26 15.208-35.9-3.89-6.249-11.101-10.579-18.966-11.357-8.315-.822-16.21 2.343-22.037 9.508l-.543.678-.518.665c-.337.44-.658.875-.964 1.306l-.448.644c-2.262 3.323-3.681 6.555-4.924 11.16l-.239.91c-.04.154-.079.31-.118.468l-.234.965-.116.497-.232 1.026-.115.53-.232 1.092-.351 1.729-.238 1.215-.18.948-.118.675-.117.72-.115.764-.114.81-.112.853-.11.898-.109.942-.107.986-.105 1.03-.153 1.627-.1 1.139-.055.643Z"
      fill="#38CCA6"></path>
    <g fill="#38CCA6">
      <path
        d="m207.22 200.068-1.461.289-1.419.274-1.377.26-1.336.247-1.295.231-1.253.218-1.213.203-1.171.189-1.131.174-1.09.16-1.05.146-1.01.132-.97.118-.93.103-.45.046-.871.082-.831.067-1.468.105-1.42.093-1.376.08-1.334.067-1.294.054-1.256.04c-.62.016-1.226.027-1.82.032l-1.174.003c-8.109-.04-14.079-1.254-21.581-4.477l-1.083-.474c-14.03-6.26-22.967-18.163-25.284-32.262-2.17-13.194 1.774-26.903 10.704-36.424 18.374-19.588 51.85-15.619 66.91 7.976 3.923 6.145 7.257 16.592 8.47 24.79l.11.79.062.491.057.52.055.551.052.58.094 1.25.043.671.078 1.432.066 1.554.054 1.677.053 2.271.036 2.468.018 2.665.003 2.277-.011 3.028-.02 2.569-.026 2.204-.02.397a10.999 10.999 0 0 1-8.84 10.063Zm-9.088-16.59.004-2.39-.009-2.603-.03-2.85-.022-1.313-.038-1.632-.047-1.495-.055-1.358-.065-1.22-.072-1.08-.04-.487-.041-.452-.044-.417-.069-.558a42.298 42.298 0 0 0-.289-1.795l-.18-.938c-.096-.475-.2-.958-.31-1.445l-.233-.981a68.666 68.666 0 0 0-.8-2.974l-.296-.985c-1.112-3.593-2.478-6.958-3.782-9-8.861-13.883-28.427-16.203-38.609-5.347-5.03 5.364-7.349 13.422-6.072 21.19 1.35 8.211 6.438 14.987 14.857 18.744l.795.348c.654.281 1.29.54 1.914.778l.743.275c.37.133.735.258 1.1.376l.725.226c3.138.94 6.206 1.349 10.14 1.382h.923l.957-.011.491-.01 1.012-.031.52-.02 1.072-.048 1.116-.06 1.162-.07 1.834-.124.637-.047a46.1 46.1 0 0 0 .681-.056l.727-.07.772-.083.818-.097.426-.054.885-.119.93-.132.975-.146 1.02-.16 1.612-.267 1.711-.297.544-.097ZM37.709 11.363l2.837-.144 2.021-.09 1.297-.051 1.256-.045 1.216-.037 1.176-.03 1.69-.032 1.6-.015 1.018-.002.978.006.94.013.9.02.863.027.823.034.398.02.766.046 1.455.1.708.052 1.383.108c.226.019.45.037.673.057l1.315.119 1.274.127c10.443 1.099 16.795 3.155 25.429 8.56 13.022 8.151 20.215 21.183 20.548 35.467.312 13.367-5.501 26.394-15.67 34.58-20.92 16.84-53.518 8.25-65.149-17.21-3.299-7.222-4.668-14.818-4.935-26.051-.16-6.68.744-14.993 2.674-25.047l.376-1.913.095-.399c1.177-4.631 5.23-8 10.045-8.27Zm6.48 17.715-.11.645-.12.731-.228 1.434-.107.703-.198 1.378c-.032.226-.062.45-.092.674l-.17 1.32-.15 1.281c-.374 3.366-.543 6.32-.51 8.85l.025 1.077.039 1.183.048 1.14c.018.372.037.738.058 1.097l.068 1.059.079 1.02.043.496.094.967c.499 4.748 1.409 8.234 2.869 11.43 6.843 14.98 25.895 20.001 37.49 10.668 5.727-4.611 9.144-12.269 8.961-20.139-.194-8.319-4.289-15.737-12.104-20.629a69.28 69.28 0 0 0-.759-.468l-.74-.444c-4.395-2.586-7.951-3.859-13.304-4.64l-.91-.127a73.33 73.33 0 0 0-.945-.117l-.984-.11-1.025-.104-.53-.05-1.092-.095-1.14-.092-1.192-.087-1.246-.085-.628-.037-.672-.03-.714-.025-.759-.018-.8-.011-.844-.006h-.887l-1.41.014-1.504.027-1.055.026-1.098.033-1.139.039-.608.022Z">
      </path>
    </g>
    <circle fill="#F3E500" cx="120.21" cy="107.26" r="12.881"></circle>
  </g>
</svg>