<svg xmlns="http://www.w3.org/2000/svg" viewBox="0 0 14.625 14.625"><path fill="currentColor" d="M7.313 0c.345 0 .625.28.625.625v.783a5.94 5.94 0 0 1 5.28 5.279H14a.625.625 0 1 1 0 1.25l-.783.001a5.94 5.94 0 0 1-5.279 5.28V14a.625.625 0 1 1-1.25 0l-.001-.783a5.94 5.94 0 0 1-5.28-5.279H.626a.625.625 0 1 1 0-1.25l.783-.001a5.94 5.94 0 0 1 5.279-5.28V.626c0-.345.28-.625.625-.625Zm.625 2.666v1.709a.625.625 0 1 1-1.25 0V2.666a4.69 4.69 0 0 0-4.022 4.021h1.709a.625.625 0 1 1 0 1.25H2.666a4.69 4.69 0 0 0 4.021 4.022V10.25a.625.625 0 1 1 1.25 0v1.709a4.69 4.69 0 0 0 4.022-4.021H10.25a.625.625 0 1 1 0-1.25h1.709a4.69 4.69 0 0 0-4.021-4.022Z"/></svg>