<svg width="1em" height="1em" viewBox="0 0 256 256" xmlns="http://www.w3.org/2000/svg" class="larkui-icon larkui-icon-nav-english"><defs><clipPath id="2987007566a"><path d="M81.429 0c5.523 0 10 4.477 10 10s-4.477 10-10 10H18.286v50h63.143c5.522 0 10 4.477 10 10s-4.478 10-10 10H18.286v50h63.143c5.523 0 10 4.477 10 10s-4.477 10-10 10H16c-8.837 0-16-7.163-16-16V16C0 7.163 7.163 0 16 0h65.429Zm88.829 65.304C183.647 73.134 192.005 88.394 192 105v45.857a9.143 9.143 0 0 1-18.286 0V105c0-14.3-10.742-25-22.857-25C138.743 80 128 90.7 128 105v45.857a9.143 9.143 0 1 1-18.286 0V69.143A9.143 9.143 0 0 1 118.857 60h1.573a7.57 7.57 0 0 1 7.566 7.325l.004.245c12.625-9.226 28.868-10.097 42.258-2.266Z"></path></clipPath></defs><g clip-path="url(#2987007566a)" transform="translate(32 48)"><path fill="currentColor" d="M0 0h192v160H0V0z"></path></g></svg>