<svg width="16" height="16" viewBox="0 0 256 256" xmlns="http://www.w3.org/2000/svg" class="larkui-icon larkui-icon-note icon"><path d="M153.782 31.119c-20.63 7.118-35.742 14.693-49.744 26.39l-1.024.86c-16.605 14.058-28.11 28.457-44.897 57-14.012 23.824-26.253 58.923-35.325 93.655l-.649 2.506a383.116 383.116 0 0 0-1.735 6.983 10.182 10.182 0 0 0 5.178 11.36c4.98 2.613 11.134.694 13.746-4.285l.592-1.124.057-.097c4.165-7.176 7.94-12.676 11.242-16.453l.126-.133c1.257-1.246 6.768-4.9 13.233-8.47l1.17-.64c7.017-3.806 13.977-6.957 18.661-8.4l1.024-.304 5.989-1.757c9.96-2.935 16.382-4.923 22.295-7.052l.813-.294.807-.297 1.355-.507c3.608-1.367 7.217-2.859 11.547-4.734l.82-.356c26.736-11.63 46.611-26.537 61.757-48.3l.277-.413c.959-1.478 2.306-4.02 4.386-8.182l6.66-13.389-6.445-.852 8.75-2.99 1.157-.81c3.46-2.418 5.946-4.874 7.455-7.94l20.345-41.3a19.6 19.6 0 0 0 1.866-6.263c1.275-10.373-5.822-20.013-16.165-21.324-19.075-2.42-46.191 1.31-65.324 7.912Zm60.5 11.678.732.07-19.603 39.794-.193.17-.067.054-44.69 15.29c-1.913.665-3.603 1.685-5.107 3.947-2.73 4.106-1.968 8.913.725 12.07 1.04 1.22 2.035 1.909 3.14 2.473.469.24.898.418 1.334.574.797.285 1.585.482 2.634.7l.788.158c.94.18 2.098.383 3.487.61l2.631.415 2.481.375c.882.131 1.817.268 2.807.411l5.036.714-.39.493c-12.07 15.102-27.498 26.06-48.006 35.105l-.936.41c-4.568 1.988-8.245 3.512-11.992 4.916l-.751.28c-6.176 2.283-12.717 4.304-23.882 7.585l-5.33 1.565-.423.126c-7.47 2.28-18.106 7.353-27.033 12.536l-.86.501.2-.62c7.157-22.257 15.495-42.969 24.342-58.011l1.428-2.415c15.224-25.609 25.271-37.867 40.076-50.235 11.825-9.878 24.914-16.438 43.446-22.833 15.63-5.394 38.233-8.657 53.975-7.228Z" fill="currentColor" fill-rule="nonzero"></path></svg>