<svg width="18" height="1em" viewBox="0 0 256 256" xmlns="http://www.w3.org/2000/svg"
  class="larkui-icon larkui-icon-nav-bell index-module_bell_KxNIQ" name="nav-bell">
  <path
    d="M48.007 151.503V95.255C48.007 51.484 83.82 16 127.999 16c44.18 0 79.993 35.484 79.993 79.255v56.248l15.152 30.028c2.662 5.27-1.208 11.469-7.154 11.469H40.01c-5.947 0-9.814-6.199-7.155-11.469l15.152-30.028ZM198.5 173l-9.592-18.938a7.341 7.341 0 0 1-.794-3.317v-54.4C188.114 63.568 161.2 37 128 37c-33.2 0-60.114 26.568-60.114 59.345v54.398a7.368 7.368 0 0 1-.794 3.32L57.5 172.997h141V173ZM87.712 204.086a10.994 10.994 0 0 1 15.66.391c5.7 6.052 13.715 9.132 24.79 9.132 11.054 0 18.927-3.03 24.393-8.946a10.994 10.994 0 0 1 15.656-.542c4.47 4.22 4.711 11.304.536 15.824-9.932 10.75-23.718 16.055-40.584 16.055-16.844 0-30.705-5.326-40.837-16.086-4.218-4.478-4.045-11.565.386-15.828Z"
    fill="currentColor" fill-rule="nonzero"></path>
</svg>